<svg xmlns="http://www.w3.org/2000/svg" viewBox="0 0 64 64">
  <defs>
    <linearGradient id="g" x1="0" x2="1" y1="0" y2="1">
      <stop offset="0%" stop-color="#7c3aed"/>
      <stop offset="100%" stop-color="#22c55e"/>
    </linearGradient>
  </defs>
  <rect width="64" height="64" rx="16" fill="url(#g)"/>
  <circle cx="32" cy="34" r="16" fill="#fff" opacity=".95"/>
  <path d="M22 37c0-7 5-13 10-13s10 6 10 13c0 6-4 10-10 10s-10-4-10-10z" fill="#7c3aed"/>
  <path d="M28 28l-6-6 2 8" fill="none" stroke="#fff" stroke-width="3.5" stroke-linecap="round" stroke-linejoin="round"/>
  <path d="M36 28l6-6-2 8" fill="none" stroke="#fff" stroke-width="3.5" stroke-linecap="round" stroke-linejoin="round"/>
  <path d="M26 36c2-2 4-3 6-3s4 1 6 3" fill="none" stroke="#fff" stroke-width="3" stroke-linecap="round"/>
  <path d="M26 42c2 2 4 3 6 3s4-1 6-3" fill="none" stroke="#22c55e" stroke-width="3" stroke-linecap="round"/>
  <circle cx="29" cy="33" r="1.7" fill="#fff"/>
  <circle cx="35" cy="33" r="1.7" fill="#fff"/>
</svg>
